# xmcd CD database file
#
# Track frame offsets:
#	150
#	22225
#	50371
#	78386
#	106784
#	130556
#	158567
#	179299
#	203084
#	234306
#	263664
#	279150
#	294233
#	309089
#
# Disc length: 4296 seconds
#
# Revision: 0
# Processed by: cddbd v1.5.2PL0 Copyright (c) Steve Scherf et al.
# Submitted via: CDex 1.70beta2
#
DISCID=a610c60e
DTITLE=Susanne Alt Quartet - On track
DYEAR=2009
DGENRE=Jazz
TTITLE0=Crash course
TTITLE1=Things to do
TTITLE2=Mermaid eyes
TTITLE3=Spring clouds
TTITLE4=On track
TTITLE5=Music for president
TTITLE6=June tune
TTITLE7=A got rhythm
TTITLE8=Sintra and Sonora
TTITLE9=Recurring dreams
TTITLE10=On track (ska)
TTITLE11=Things to do (short)
TTITLE12=Music for president (short)
TTITLE13=June tune (short)
EXTD=YEAR: 2009
EXTT0=
EXTT1=
EXTT2=
EXTT3=
EXTT4=
EXTT5=
EXTT6=
EXTT7=
EXTT8=
EXTT9=
EXTT10=
EXTT11=
EXTT12=
EXTT13=
PLAYORDER=
